<svg xmlns="http://www.w3.org/2000/svg" viewBox="0 0 512 512" role="img" aria-labelledby="title">
  <title id="title">Carles Meatland and Farms icon</title>
  <defs>
    <linearGradient id="bg" x1="0" x2="1" y1="0" y2="1">
      <stop offset="0" stop-color="#073638"/>
      <stop offset="1" stop-color="#0D3B3E"/>
    </linearGradient>
  </defs>
  <rect x="24" y="24" width="464" height="464" rx="104" fill="url(#bg)"/>
  <path d="M135 183 C180 110 326 110 377 183" fill="none" stroke="#FF6B6B" stroke-width="14" stroke-linecap="round"/>
  <g transform="translate(90 164) scale(.56)">
    <path d="M48 80c0-26 20-48 51-48h119c37 0 67 28 67 62v55H81C63 149 48 134 48 116z" fill="#F8FCFB"/>
    <path d="M42 78c-20-8-35-23-36-41 20 1 43 14 54 33z" fill="#F8FCFB"/>
    <path d="M91 151h25v47H91zM205 151h25v47h-25z" fill="#F8FCFB"/>
    <path d="M276 87c38 8 62 1 75-29 8 44-24 75-71 63z" fill="#F8FCFB"/>
    <ellipse cx="145" cy="73" rx="36" ry="24" fill="#0D3B3E" opacity=".75"/>
    <circle cx="36" cy="61" r="6" fill="#0D3B3E"/>
  </g>
  <g transform="translate(192 223) scale(.62)">
    <ellipse cx="95" cy="45" rx="90" ry="42" fill="#FF6B6B"/>
    <circle cx="20" cy="39" r="30" fill="#FF6B6B"/>
    <path d="M60 82h18v35H60zM145 82h18v35h-18z" fill="#FF6B6B"/>
    <circle cx="10" cy="33" r="5" fill="#0D3B3E"/>
  </g>
  <g transform="translate(294 168) scale(.48)">
    <ellipse cx="112" cy="91" rx="85" ry="50" fill="#14B8A6"/>
    <circle cx="35" cy="74" r="30" fill="#14B8A6"/>
    <path d="M24 45C8 12-4 6-28 7-14 34 0 47 24 45zM51 47c13-35 30-45 52-37-12 27-27 41-52 37z" fill="#14B8A6"/>
    <path d="M70 135h19v50H70zM148 135h19v50h-19z" fill="#14B8A6"/>
    <circle cx="25" cy="67" r="5" fill="#0D3B3E"/>
  </g>
  <g fill="none" stroke="#F8FCFB" stroke-width="12" stroke-linecap="round" opacity=".95">
    <path d="M112 340c84-28 180-27 288 0"/>
    <path d="M150 370c64-18 139-18 216 0"/>
    <path d="M190 400c45-10 90-10 135 0"/>
  </g>
</svg>
