<svg xmlns="http://www.w3.org/2000/svg" viewBox="0 0 940 600" role="img" aria-labelledby="title desc">
  <title id="title">Carles Meatland and Farms logo</title>
  <desc id="desc">Cow, pig and goat standing over farm rows with the Carles Meatland and Farms wordmark.</desc>
  <defs>
    <linearGradient id="tealGrad" x1="0" x2="1" y1="0" y2="1">
      <stop offset="0" stop-color="#052B2D"/>
      <stop offset="1" stop-color="#0D3B3E"/>
    </linearGradient>
    <linearGradient id="goatGrad" x1="0" x2="1" y1="0" y2="1">
      <stop offset="0" stop-color="#0F766E"/>
      <stop offset="1" stop-color="#14B8A6"/>
    </linearGradient>
    <filter id="softShadow" x="-20%" y="-20%" width="140%" height="140%">
      <feDropShadow dx="0" dy="10" stdDeviation="10" flood-color="#0D3B3E" flood-opacity="0.10"/>
    </filter>
  </defs>

  <g filter="url(#softShadow)">
    <path d="M240 155 C310 60 520 60 600 155" fill="none" stroke="#FF6B6B" stroke-width="12" stroke-linecap="round"/>

    <g transform="translate(128 128)">
      <path d="M48 80c0-26 20-48 51-48h119c37 0 67 28 67 62v55H81C63 149 48 134 48 116z" fill="url(#tealGrad)"/>
      <path d="M42 78c-20-8-35-23-36-41 20 1 43 14 54 33z" fill="#052B2D"/>
      <path d="M76 35C65 12 45 2 22 7c14 18 29 31 54 28z" fill="#052B2D"/>
      <path d="M91 151h25v47H91zM205 151h25v47h-25z" fill="#052B2D"/>
      <path d="M276 87c38 8 62 1 75-29 8 44-24 75-71 63z" fill="#052B2D"/>
      <ellipse cx="145" cy="73" rx="36" ry="24" fill="#F6F8F8" opacity=".95"/>
      <ellipse cx="223" cy="94" rx="23" ry="18" fill="#F6F8F8" opacity=".95"/>
      <circle cx="36" cy="61" r="6" fill="#F6F8F8"/>
    </g>

    <g transform="translate(365 210)">
      <ellipse cx="95" cy="45" rx="90" ry="42" fill="#FF6B6B"/>
      <circle cx="20" cy="39" r="30" fill="#FF6B6B"/>
      <circle cx="-5" cy="47" r="12" fill="#FF8C84"/>
      <path d="M5 13l15 18 14-18" fill="#FF6B6B"/>
      <path d="M60 82h18v35H60zM145 82h18v35h-18z" fill="#E94F4F"/>
      <path d="M183 36c28-8 42 2 46 21-16-8-31-10-46-2z" fill="none" stroke="#E94F4F" stroke-width="8" stroke-linecap="round"/>
      <circle cx="10" cy="33" r="4" fill="#052B2D"/>
    </g>

    <g transform="translate(598 138)">
      <ellipse cx="112" cy="91" rx="85" ry="50" fill="url(#goatGrad)"/>
      <path d="M42 84c-21-20-39-38-68-39 12 33 35 50 68 55z" fill="#0F766E"/>
      <circle cx="35" cy="74" r="30" fill="#0F766E"/>
      <path d="M24 45C8 12-4 6-28 7-14 34 0 47 24 45zM51 47c13-35 30-45 52-37-12 27-27 41-52 37z" fill="#0F766E"/>
      <path d="M70 135h19v50H70zM148 135h19v50h-19z" fill="#0F766E"/>
      <path d="M195 77c31-9 53 2 61 31-22-14-40-17-62-7z" fill="#0F766E"/>
      <circle cx="25" cy="67" r="5" fill="#F6F8F8"/>
    </g>

    <g transform="translate(210 302)" fill="none" stroke="#0D3B3E" stroke-width="10" stroke-linecap="round">
      <path d="M0 30C130-3 288-7 500 30"/>
      <path d="M50 56C180 27 315 26 460 56"/>
      <path d="M114 80C222 57 319 58 404 80"/>
    </g>
  </g>

  <text x="470" y="482" text-anchor="middle" font-family="Poppins, Montserrat, Arial, sans-serif" font-size="96" font-weight="800" letter-spacing="24" fill="#0D3B3E">CARLES</text>
  <text x="470" y="536" text-anchor="middle" font-family="Poppins, Montserrat, Arial, sans-serif" font-size="39" font-weight="700" letter-spacing="12" fill="#FF6B6B">MEATLAND &amp; FARMS</text>
  <text x="470" y="572" text-anchor="middle" font-family="Poppins, Arial, sans-serif" font-size="18" font-weight="600" letter-spacing="3" fill="#0D3B3E">RAISED RIGHT. GROWN TOGETHER. DELIVERED BETTER.</text>
</svg>
